<?xml version="1.0" encoding="utf-8" ?>
<svg baseProfile="full" height="591" version="1.1" width="500" xmlns="http://www.w3.org/2000/svg" xmlns:ev="http://www.w3.org/2001/xml-events" xmlns:xlink="http://www.w3.org/1999/xlink"><defs /><g id="layer_0"><path d="M 3,0 2,1 2,143 1,144 2,145 2,151 1,152 1,156 2,157 2,160 1,161 1,165 2,166 2,169 1,170 1,173 2,174 2,583 3,584 3,590 497,590 497,584 496,583 496,582 497,581 497,156 498,155 497,154 497,147 498,146 498,145 497,144 497,138 498,137 498,135 497,134 497,129 498,128 498,125 497,124 497,119 498,118 498,117 497,116 497,110 498,109 497,108 497,17 498,16 498,14 497,13 497,9 498,8 498,3 497,2 497,0 Z" fill="#fefefe" /></g><g id="layer_1"><path d="M 138,472 137,473 130,473 129,474 126,474 125,475 124,475 123,476 121,476 119,478 118,478 117,479 116,479 109,486 109,487 106,490 106,492 105,493 105,494 104,495 104,497 103,498 103,501 102,502 102,514 103,515 103,518 104,519 104,521 105,522 105,524 106,525 106,527 107,528 107,529 111,533 111,534 117,540 118,540 121,543 122,543 125,546 126,546 127,547 128,547 129,548 130,548 131,549 132,549 133,550 134,550 135,551 136,551 137,552 139,552 140,553 142,553 143,554 146,554 147,555 148,555 149,556 151,556 152,557 156,557 157,558 163,558 164,559 169,559 170,560 178,560 179,561 199,561 200,560 209,560 210,559 217,559 218,558 223,558 224,557 227,557 228,556 230,556 231,555 233,555 234,554 237,554 238,553 240,553 241,552 243,552 245,550 247,550 248,549 249,549 250,548 253,548 253,547 255,545 258,545 259,544 260,544 264,540 265,540 266,539 267,539 273,533 273,532 276,529 276,524 277,523 277,522 276,521 276,516 275,515 275,513 274,512 274,511 272,509 272,508 271,507 271,506 263,498 263,495 262,494 262,491 256,485 255,485 253,483 251,483 250,482 250,488 251,489 251,490 250,491 250,492 248,494 247,494 246,495 244,495 243,496 235,496 234,495 230,495 229,494 226,494 225,493 223,493 222,492 221,492 220,491 219,491 218,490 217,490 216,489 216,488 215,487 215,486 214,485 213,485 212,484 212,483 211,482 211,481 208,481 205,484 202,484 201,483 199,483 198,482 196,482 195,481 192,481 191,480 189,480 188,479 185,479 184,478 181,478 180,477 178,477 177,476 173,476 172,475 169,475 168,474 162,474 161,473 150,473 149,472 Z" fill="#e4b111" /><path d="M 395,458 394,459 388,459 387,460 383,460 381,462 378,462 377,463 375,463 374,464 373,464 372,465 370,465 369,466 368,466 366,468 365,468 363,470 362,470 360,472 359,472 357,474 356,474 349,481 348,481 346,483 346,484 345,485 344,485 344,486 337,493 337,495 336,496 335,496 334,497 333,496 332,496 331,495 329,495 328,494 314,494 313,495 310,495 309,496 305,496 303,498 301,498 299,500 298,500 297,501 296,501 286,511 285,511 285,516 284,517 284,518 283,519 283,521 284,522 284,523 283,524 283,528 282,529 282,530 280,532 280,533 279,534 279,535 278,536 278,548 280,550 280,552 284,556 284,557 285,557 288,560 289,560 291,562 293,562 294,563 295,563 296,564 296,566 298,566 299,567 300,567 301,568 303,568 304,569 305,569 306,570 309,570 310,571 316,571 317,572 321,572 322,573 326,573 327,574 330,574 331,575 332,574 333,574 334,575 354,575 355,574 360,574 361,573 365,573 366,572 372,572 373,571 377,571 378,570 381,570 383,568 384,568 385,567 388,567 389,566 394,566 395,565 396,565 397,564 398,564 399,563 400,563 401,562 403,562 404,561 405,561 407,559 408,559 409,558 410,558 411,557 412,557 413,556 414,556 416,554 417,554 418,553 419,553 419,552 421,550 422,550 423,549 424,549 426,547 427,547 428,546 428,545 437,536 437,535 438,534 438,533 439,532 439,531 440,530 441,530 441,529 442,528 442,526 443,525 443,523 445,521 445,520 446,519 446,515 447,514 447,503 448,502 448,499 447,498 447,491 446,490 446,486 444,484 444,483 443,482 443,481 442,480 442,479 441,478 441,477 437,473 437,472 436,472 431,467 430,467 428,465 426,465 425,464 424,464 423,463 422,463 421,462 419,462 418,461 416,461 415,460 411,460 410,459 405,459 404,458 401,458 400,459 399,458 Z" fill="#e4b111" /></g><g id="layer_2"><path d="M 306,122 305,123 303,123 302,124 300,124 299,125 297,125 296,126 295,126 294,127 293,127 292,128 291,128 289,130 288,130 285,133 284,133 277,140 277,141 272,146 272,147 270,149 270,150 268,152 268,153 267,154 267,155 266,156 266,157 265,158 265,159 263,161 263,163 262,164 262,166 261,167 261,168 260,169 260,171 259,172 259,174 258,175 258,177 257,178 257,183 256,184 256,185 255,186 254,186 253,185 251,185 250,184 237,184 236,185 234,185 233,186 232,186 231,187 230,187 228,189 227,189 226,190 226,191 223,194 223,195 222,196 222,197 221,198 221,201 220,202 220,203 219,204 219,216 220,217 220,220 221,221 221,222 222,223 222,225 223,226 223,227 224,228 224,230 226,232 226,234 229,237 229,238 231,240 231,241 232,242 232,243 236,247 236,248 240,252 240,253 241,253 242,254 242,255 246,259 247,259 251,263 251,264 252,265 252,266 254,268 254,271 256,273 256,274 257,275 257,276 262,281 263,281 266,284 267,284 268,285 271,285 272,286 274,286 275,287 285,287 286,286 289,286 290,285 294,285 295,284 299,284 300,283 303,283 304,284 321,284 322,283 329,283 330,282 333,282 334,281 339,281 340,280 341,280 342,279 344,279 347,276 349,276 352,273 353,273 356,270 356,269 359,266 359,265 361,263 361,262 362,261 362,259 363,258 363,247 362,246 362,244 361,243 361,242 360,241 360,240 358,238 358,237 356,235 355,235 352,232 351,232 349,230 348,230 347,229 345,229 343,227 343,226 345,224 345,223 352,216 352,215 354,213 354,212 356,210 356,209 359,206 359,204 360,203 360,202 361,201 361,200 362,199 362,198 363,197 363,195 364,194 364,190 365,189 365,188 366,187 366,181 367,180 367,158 366,157 366,154 365,153 365,151 364,150 364,149 363,148 363,147 362,146 362,145 354,137 353,137 352,136 351,136 350,135 342,135 341,134 340,135 338,135 337,136 336,136 335,137 334,137 333,138 332,138 331,139 330,139 328,137 328,135 327,134 327,132 326,131 326,130 325,129 325,128 322,125 321,125 320,124 319,124 318,123 316,123 315,122 Z" fill="#d4b39c" /></g><g id="layer_3"><path d="M 215,293 214,294 203,294 202,295 200,295 196,299 196,300 195,301 194,301 191,304 191,305 188,308 188,309 184,313 184,315 181,318 181,319 179,321 179,322 178,323 178,325 177,326 177,327 175,329 175,330 174,331 174,334 173,335 173,336 172,337 172,339 171,340 171,342 170,343 170,346 169,347 169,351 168,352 168,357 167,358 167,362 166,363 166,370 165,371 165,385 163,387 163,388 162,389 162,390 161,391 161,393 160,394 160,397 159,398 159,400 158,401 158,403 157,404 157,406 156,407 156,408 155,409 155,410 154,411 154,412 153,413 153,414 152,415 152,416 151,417 151,419 150,420 150,422 149,423 150,424 150,425 151,426 151,427 152,428 153,428 154,429 155,429 157,431 158,431 159,432 160,432 161,433 164,433 165,434 167,434 168,435 170,435 171,436 174,436 175,437 182,437 183,436 183,435 182,434 182,433 181,432 184,429 186,429 187,430 188,430 189,431 192,431 194,433 196,433 197,434 199,434 200,435 202,435 203,436 206,436 207,437 209,437 210,438 215,438 216,439 219,439 220,440 225,440 226,439 227,439 230,442 230,443 231,444 231,445 232,446 234,446 235,447 239,447 240,448 250,448 251,447 257,447 258,446 261,446 263,444 264,444 265,443 267,443 268,442 270,442 271,441 272,441 273,440 276,440 277,439 278,439 279,438 283,438 284,437 290,437 292,439 292,441 296,445 298,445 300,443 301,443 303,441 303,440 304,439 304,438 305,437 305,436 304,435 304,431 303,430 303,428 302,427 302,426 301,425 301,423 300,422 300,421 299,420 299,418 298,417 298,416 296,414 296,412 295,411 294,411 293,410 289,410 288,409 287,409 286,408 284,408 283,407 282,407 281,406 280,406 275,401 274,401 271,398 271,397 268,394 268,393 265,390 265,389 264,388 264,387 263,386 263,385 262,384 262,383 260,381 260,379 258,377 258,375 257,374 257,373 256,372 255,372 253,370 252,370 249,367 249,366 246,363 246,362 245,361 245,360 244,359 244,347 246,345 246,344 247,343 247,342 248,341 248,340 249,339 249,338 250,337 251,337 252,336 253,336 253,335 254,334 254,333 255,332 256,332 257,331 258,331 259,330 260,330 261,329 262,329 264,327 267,327 269,325 271,325 273,323 274,323 277,320 277,318 268,309 267,309 266,308 265,308 263,306 262,306 260,304 259,304 257,302 255,302 253,300 251,300 250,299 248,299 247,298 245,298 244,297 241,297 240,296 239,296 238,295 233,295 232,294 220,294 219,293 Z" fill="#dd1404" /></g><g id="layer_4"><path d="M 204,294 203,295 201,295 200,296 199,296 198,297 198,298 189,307 189,308 187,310 187,311 184,314 184,315 182,317 182,318 180,320 180,321 179,322 179,323 178,324 178,325 177,326 177,327 175,329 175,330 174,331 174,334 173,335 173,336 172,337 172,339 171,340 171,343 170,344 170,346 169,347 169,352 168,353 168,357 167,358 167,363 166,364 166,371 165,372 165,384 164,385 164,386 163,387 163,388 162,389 162,390 161,391 161,393 160,394 160,397 159,398 159,400 158,401 158,403 157,404 157,406 156,407 156,408 155,409 155,410 154,411 154,412 153,413 153,414 152,415 152,416 151,417 151,419 150,420 150,422 149,423 150,424 150,425 154,429 155,429 157,431 158,431 159,432 161,432 162,433 164,433 165,434 168,434 169,435 171,435 172,436 175,436 176,437 182,437 182,432 185,429 186,429 187,430 188,430 189,431 192,431 193,432 194,432 195,433 197,433 198,434 200,434 201,435 203,435 204,436 207,436 208,437 210,437 211,438 215,438 216,439 220,439 221,440 225,440 226,439 227,439 230,442 230,443 231,444 231,445 232,446 234,446 235,447 238,447 239,448 251,448 252,447 257,447 258,446 260,446 261,445 262,445 263,444 264,444 265,443 267,443 268,442 270,442 271,441 272,441 273,440 276,440 277,439 278,439 279,438 283,438 284,437 290,437 292,439 292,441 296,445 298,445 301,442 302,442 303,441 303,440 304,439 304,438 305,437 305,436 304,435 304,431 303,430 303,428 302,427 302,426 301,425 301,424 300,423 300,421 299,420 299,418 298,417 298,416 296,414 296,413 295,412 295,411 294,411 293,410 289,410 288,409 286,409 285,408 284,408 283,407 282,407 280,405 279,405 275,401 274,401 271,398 271,397 268,394 268,393 265,390 265,389 264,388 264,387 263,386 263,385 262,384 262,383 261,382 261,381 260,380 260,379 258,377 258,375 257,374 257,373 256,372 255,372 252,369 251,369 249,367 249,366 245,362 245,361 243,359 243,351 244,350 244,346 246,344 246,343 248,341 248,340 249,339 249,338 251,336 252,336 253,335 253,334 254,333 254,332 255,331 257,331 259,329 261,329 262,328 263,328 264,327 267,327 269,325 270,325 271,324 272,324 273,323 274,323 277,320 277,319 276,318 276,317 270,311 269,311 267,309 266,309 264,307 263,307 261,305 260,305 258,303 257,303 256,302 255,302 254,301 253,301 252,300 250,300 249,299 248,299 247,298 245,298 244,297 241,297 240,296 238,296 237,295 232,295 231,294 Z" fill="#de1404" /></g><g id="layer_5"><path d="M 303,499 302,500 301,500 300,501 298,501 297,502 296,502 296,503 298,503 299,502 300,502 302,500 306,500 306,499 Z" fill="#ddab1a" /><path d="M 392,459 391,460 385,460 384,461 382,461 381,462 379,462 378,463 376,463 375,464 374,464 373,465 371,465 370,466 369,466 367,468 366,468 365,469 364,469 361,472 360,472 358,474 357,474 352,479 351,479 345,485 345,486 337,494 337,495 335,497 334,497 334,499 333,500 331,500 330,501 327,501 326,500 326,497 325,498 324,498 324,502 322,504 321,504 320,505 319,505 319,506 317,508 312,508 311,509 310,509 309,508 305,508 304,509 304,511 303,512 301,510 301,509 299,509 298,508 296,508 295,509 296,510 296,515 294,517 293,517 292,518 291,517 289,517 287,515 290,512 290,511 292,509 292,508 289,508 289,509 287,511 287,514 286,515 285,515 285,516 284,517 284,520 285,521 286,521 287,522 287,523 286,524 286,525 285,526 285,527 281,531 281,532 280,533 280,534 279,535 279,537 278,538 278,547 279,548 279,550 280,551 280,552 282,554 282,555 286,559 287,559 289,561 290,561 293,564 294,564 295,565 296,565 297,566 298,566 299,567 300,567 301,568 302,568 303,569 304,569 305,570 307,570 308,571 312,571 313,572 317,572 318,573 321,573 322,574 329,574 330,575 352,575 353,574 360,574 361,573 366,573 367,572 373,572 374,571 377,571 378,570 381,570 382,569 384,569 385,568 386,568 387,567 391,567 392,566 395,566 396,565 397,565 398,564 399,564 400,563 401,563 402,562 404,562 406,560 407,560 408,559 409,559 410,558 411,558 412,557 413,557 415,555 416,555 418,553 419,553 422,550 423,550 425,548 426,548 431,543 431,542 433,540 434,540 436,538 436,537 438,535 438,534 439,533 439,532 442,529 442,527 443,526 443,525 444,524 444,522 445,521 445,519 446,518 446,516 447,515 447,493 446,492 446,489 445,488 445,486 444,485 444,483 443,482 443,481 442,480 442,479 439,476 439,475 432,468 431,468 429,466 428,466 427,465 426,465 425,464 423,464 422,463 421,463 420,462 417,462 416,461 414,461 413,460 409,460 408,459 Z" fill="#ddab1a" /></g><g id="layer_6"><path d="M 144,51 143,52 142,52 141,53 139,53 137,55 136,55 135,56 134,56 129,61 129,63 127,65 127,66 126,67 126,69 125,70 125,83 126,84 125,85 125,86 124,87 123,87 122,88 121,88 119,90 118,90 117,91 116,91 114,93 113,93 111,95 110,95 108,97 107,97 104,100 103,100 100,103 99,103 96,106 95,106 94,107 93,107 90,110 89,110 87,112 86,112 85,113 84,113 82,115 81,115 80,116 79,116 78,117 77,117 76,118 75,118 73,120 71,120 70,121 69,121 68,122 67,122 66,123 65,123 64,124 63,124 62,125 61,125 60,126 59,126 58,127 57,127 56,128 55,128 54,129 53,129 52,130 51,130 49,132 48,132 47,133 46,133 45,134 44,134 43,135 42,135 39,138 38,138 32,144 31,144 30,145 29,145 27,147 26,147 25,148 23,148 21,150 20,150 18,152 17,152 14,155 14,156 12,158 12,159 11,160 11,163 10,164 10,165 11,166 11,169 12,170 12,171 16,175 17,175 21,179 21,180 22,181 22,182 24,184 25,184 26,185 27,185 28,186 33,186 34,187 36,187 37,186 53,186 54,185 70,185 71,186 108,186 109,185 116,185 117,184 123,184 124,185 127,185 128,186 137,186 138,185 140,185 141,184 142,184 144,182 146,182 148,180 149,180 150,179 151,179 152,178 152,177 153,176 154,176 161,169 161,167 164,164 164,163 166,161 166,160 167,159 167,158 169,156 169,152 170,151 170,149 169,148 169,143 166,140 166,139 162,135 162,134 161,133 161,129 160,128 160,121 159,120 159,116 158,115 158,113 157,112 157,109 156,108 156,105 155,104 155,94 156,93 156,91 160,87 160,86 162,84 162,83 163,82 164,82 164,81 168,77 168,76 169,75 169,74 170,73 170,71 171,70 171,68 172,67 172,65 171,64 171,63 170,62 170,61 169,60 169,59 165,55 164,55 163,54 162,54 161,53 160,53 159,52 157,52 156,51 Z" fill="#dbdbdb" /></g><g id="layer_7"><path d="M 132,473 131,474 127,474 126,475 125,475 124,476 122,476 120,478 119,478 118,479 117,479 113,483 112,483 112,484 107,489 107,490 106,491 106,492 105,493 105,494 104,495 104,498 103,499 103,508 102,509 103,510 103,517 104,518 104,521 105,522 105,523 106,524 106,525 107,526 107,528 109,530 109,531 116,538 116,539 117,539 120,542 121,542 123,544 124,544 126,546 127,546 128,547 129,547 130,548 131,548 132,549 133,549 134,550 135,550 136,551 137,551 138,552 140,552 141,553 143,553 144,554 146,554 147,555 150,555 151,556 152,556 153,557 157,557 158,558 163,558 164,559 170,559 171,560 180,560 181,561 198,561 199,560 209,560 210,559 215,559 216,558 220,558 221,557 224,557 225,556 228,556 229,555 232,555 233,554 236,554 237,553 238,553 239,552 240,552 241,551 244,551 245,550 246,550 247,549 248,549 249,548 250,548 251,547 253,547 255,545 256,545 257,544 258,544 259,543 260,543 262,541 263,541 265,539 266,539 274,531 274,530 275,529 275,527 276,526 276,517 275,516 275,514 274,513 274,512 272,510 272,509 271,508 271,507 263,499 263,496 262,495 262,493 261,492 261,491 255,485 254,485 253,484 250,484 250,487 251,488 251,491 248,494 247,494 246,495 245,495 244,496 232,496 231,495 227,495 226,494 223,494 221,492 220,492 219,491 218,491 217,490 216,490 215,489 215,488 213,486 213,485 211,483 211,482 210,481 208,481 208,482 205,485 203,485 202,484 201,484 200,483 198,483 197,482 194,482 193,481 190,481 189,480 188,480 187,479 183,479 182,478 180,478 179,477 176,477 175,476 172,476 171,475 166,475 165,474 160,474 159,473 Z" fill="#f0bc07" /></g><g id="layer_8"><path d="M 279,31 278,32 272,32 271,33 268,33 267,34 265,34 264,35 263,35 262,36 261,36 260,37 259,37 258,38 257,38 256,39 255,39 253,41 252,41 251,42 250,42 248,44 247,44 236,55 236,56 233,59 233,60 231,62 231,63 230,64 230,65 229,66 229,67 228,68 228,69 227,70 227,72 226,73 226,75 225,76 225,80 224,81 224,98 225,99 225,102 226,103 226,105 227,106 227,107 228,108 228,109 229,110 229,111 231,113 231,114 239,122 240,122 241,123 242,123 244,125 245,125 246,126 247,126 248,127 250,127 251,128 254,128 255,129 261,129 262,128 265,128 266,127 272,127 273,126 281,126 282,125 286,125 287,126 287,127 287,125 288,124 290,124 291,123 291,122 293,120 294,120 295,119 298,119 301,116 303,116 304,115 306,115 309,112 310,112 320,102 320,101 323,98 323,97 324,96 324,95 325,94 325,93 326,92 326,91 327,90 327,88 328,87 328,86 329,85 329,81 330,80 330,67 329,66 329,63 328,62 328,60 327,59 327,58 326,57 326,55 324,53 324,52 322,50 322,49 319,46 319,45 318,44 317,44 313,40 312,40 310,38 309,38 308,37 307,37 306,36 305,36 304,35 302,35 301,34 300,34 299,33 296,33 295,32 290,32 289,31 Z" fill="#000000" /></g><g id="layer_9"><path d="M 415,103 414,104 411,104 410,105 408,105 407,106 405,106 404,107 403,107 402,108 401,108 400,109 399,109 396,112 395,112 387,120 387,121 385,123 385,124 383,126 383,127 382,128 382,129 381,130 381,131 380,132 380,134 379,135 379,136 378,137 378,139 377,140 377,143 376,144 376,153 377,154 377,160 378,161 378,166 379,167 379,170 380,171 380,172 381,173 381,176 382,177 382,178 384,180 384,181 385,182 385,186 386,187 386,188 388,190 388,191 389,192 389,194 393,198 394,198 396,200 397,200 398,201 399,201 400,202 401,202 402,203 404,203 405,204 408,204 409,205 414,205 415,206 421,206 422,205 427,205 428,204 431,204 432,203 433,203 434,202 436,202 437,201 438,201 440,199 441,199 443,197 444,197 448,193 449,193 451,191 451,190 455,186 455,185 457,183 457,182 458,181 458,180 460,178 460,177 461,176 461,174 462,173 462,172 463,171 463,168 464,167 464,163 465,162 465,142 464,141 464,137 463,136 463,133 462,132 462,131 461,130 461,129 460,128 460,126 459,125 459,124 456,121 456,120 448,112 447,112 445,110 444,110 442,108 441,108 440,107 439,107 438,106 436,106 435,105 433,105 432,104 428,104 427,103 Z" fill="#000000" /></g><g id="layer_10"><path d="M 297,308 296,309 294,309 293,310 292,310 291,311 290,311 289,312 287,312 285,314 284,314 279,319 279,320 274,325 273,325 272,326 271,326 270,327 268,327 267,328 266,328 265,329 264,329 261,332 259,332 255,336 254,336 252,338 251,338 249,340 249,342 248,343 248,344 247,345 247,346 246,347 246,350 245,351 245,358 247,360 247,361 248,362 248,363 255,370 256,370 259,373 259,375 260,376 260,377 261,378 261,379 262,380 262,381 263,382 263,383 264,384 264,385 267,388 267,389 269,391 269,392 278,401 279,401 282,404 283,404 284,405 285,405 286,406 288,406 289,407 290,407 291,408 294,408 295,409 307,409 308,408 310,408 311,407 313,407 314,406 315,406 316,405 317,405 318,404 319,404 320,403 321,403 323,401 324,401 325,400 326,400 326,399 327,398 328,398 335,391 335,390 337,388 337,387 339,385 339,384 341,382 341,381 342,380 342,378 343,377 343,375 344,374 344,373 345,372 345,363 346,362 346,361 350,357 350,355 339,355 338,354 337,354 336,353 334,353 328,347 328,346 327,345 327,343 326,342 326,337 327,336 327,331 328,330 328,329 330,327 330,326 331,325 331,324 329,322 328,322 327,321 325,321 322,318 321,318 319,316 318,316 317,315 316,315 315,314 314,314 313,313 312,313 311,312 310,312 309,311 308,311 307,310 306,310 305,309 304,309 303,308 Z" fill="#e8e8e8" /></g><g id="layer_11"><path d="M 421,488 420,489 416,489 415,490 414,490 413,491 412,491 411,492 410,492 409,493 408,493 407,494 406,494 403,497 402,497 392,507 392,508 387,513 387,514 385,516 385,517 383,519 383,520 379,524 379,525 375,529 375,530 368,537 368,538 361,545 360,545 355,550 354,550 350,554 349,554 347,556 346,556 345,557 344,557 343,558 342,558 341,559 341,560 342,561 344,561 345,562 347,562 348,563 353,563 354,564 362,564 363,565 380,565 381,566 382,566 383,565 392,565 393,564 396,564 397,563 399,563 400,562 401,562 402,561 403,561 404,560 405,560 406,559 407,559 408,558 409,558 412,555 413,555 414,554 416,554 418,552 419,552 423,548 424,548 428,544 429,544 429,543 437,535 437,534 438,533 438,532 440,530 440,529 441,528 441,527 442,526 442,525 443,524 443,523 444,522 444,520 445,519 445,516 446,515 446,507 445,506 445,502 444,501 444,500 443,499 443,497 438,492 437,492 436,491 435,491 433,489 427,489 426,488 Z" fill="#d39f3a" /></g><g id="layer_12"><path d="M 168,159 167,160 167,161 166,162 166,163 164,165 164,166 162,168 162,169 151,180 150,180 149,181 148,181 145,184 144,184 144,186 148,190 148,191 155,198 155,199 165,209 165,210 174,219 174,220 183,229 183,230 196,243 196,244 207,255 207,256 221,270 221,271 222,272 223,272 224,273 225,273 226,272 227,272 229,270 230,270 232,268 237,268 238,267 239,267 240,266 242,266 243,265 245,265 246,264 246,262 242,258 241,258 240,257 240,255 237,252 237,251 234,248 234,247 230,243 230,242 228,240 228,239 227,238 227,237 225,235 225,234 224,233 224,232 222,230 222,228 221,227 221,225 220,224 220,223 216,219 215,219 214,218 214,217 206,209 206,208 201,203 201,202 197,198 197,197 194,194 194,193 191,190 191,189 188,186 188,185 185,182 185,181 182,178 182,177 180,175 180,174 178,172 178,171 175,168 175,167 174,166 174,165 172,163 172,162 169,159 Z" fill="#020202" /></g><g id="layer_13"><path d="M 330,284 329,285 319,285 318,286 298,286 297,287 292,287 291,288 291,289 290,290 290,291 291,292 291,300 292,301 292,302 293,303 294,303 295,304 298,304 299,305 300,305 301,306 302,306 303,307 304,307 305,308 306,308 307,309 308,309 309,310 310,310 311,311 312,311 313,312 314,312 315,313 316,313 317,314 318,314 319,315 320,315 321,316 322,316 324,318 325,318 327,320 328,320 329,321 330,321 331,322 331,323 332,324 332,326 329,329 329,330 328,331 328,333 327,334 327,344 328,345 328,346 329,347 329,348 332,351 333,351 334,352 335,352 336,353 337,353 338,354 352,354 354,352 355,352 356,351 357,351 358,350 359,350 360,349 361,349 362,348 363,348 371,340 371,339 372,338 372,337 373,336 373,335 374,334 374,324 373,323 373,322 372,321 372,319 369,316 369,315 361,307 360,307 355,302 354,302 351,299 350,299 346,295 345,295 340,290 339,290 335,286 334,286 333,285 332,285 331,284 Z" fill="#030303" /></g><g id="layer_14"><path d="M 185,430 183,432 183,433 184,434 184,437 185,438 185,439 187,441 187,442 188,443 188,444 190,446 190,447 191,448 191,449 192,450 192,451 195,454 195,455 196,456 196,457 198,459 198,460 199,461 199,462 201,464 201,465 202,466 202,467 204,469 204,470 206,472 206,473 208,475 208,476 209,477 209,479 210,480 211,480 212,481 212,482 214,484 214,485 216,487 216,488 217,489 218,489 219,490 220,490 222,492 223,492 224,493 227,493 228,494 233,494 234,495 243,495 244,494 246,494 247,493 248,493 249,492 249,491 250,490 250,488 249,487 249,485 248,484 248,481 244,477 244,476 243,475 243,474 241,472 241,471 239,469 239,468 237,466 237,465 235,463 235,462 233,460 233,459 230,456 230,455 228,453 228,452 226,450 226,449 224,447 224,446 222,444 222,442 221,441 220,441 219,440 216,440 215,439 211,439 210,438 207,438 206,437 204,437 203,436 200,436 199,435 197,435 196,434 195,434 194,433 192,433 191,432 189,432 188,431 187,431 186,430 Z" fill="#030202" /></g><g id="layer_15"><path d="M 284,438 283,439 280,439 279,440 277,440 276,441 274,441 273,442 271,442 270,443 269,443 268,444 267,444 266,445 264,445 262,447 262,448 263,449 263,451 264,452 264,453 265,454 265,456 266,457 266,458 267,459 267,461 268,462 268,463 269,464 269,466 270,467 270,468 271,469 271,471 272,472 272,473 273,474 273,476 274,477 274,479 275,480 275,481 276,482 276,483 277,484 277,486 278,487 278,488 279,489 279,491 280,492 280,494 281,495 281,496 282,497 282,499 283,500 283,501 284,502 284,503 285,504 285,506 287,508 295,500 296,500 297,499 298,499 299,498 300,498 301,497 302,497 303,496 304,496 305,495 308,495 309,494 313,494 314,493 316,493 316,489 315,488 315,487 313,485 313,484 312,483 312,482 311,481 311,480 310,479 310,478 309,477 309,476 308,475 308,474 307,473 307,472 306,471 306,469 304,467 304,466 303,465 303,464 302,463 302,462 301,461 301,460 300,459 300,458 299,457 299,455 298,454 298,453 296,451 296,449 295,448 295,447 293,445 293,444 292,443 292,442 291,441 291,439 290,438 Z" fill="#030202" /></g><g id="layer_16"><path d="M 225,444 225,445 228,448 228,450 230,452 230,453 231,454 231,455 234,458 234,459 235,460 235,461 238,464 238,465 239,466 239,467 243,471 243,472 244,473 244,474 247,477 247,478 248,479 249,479 250,480 251,480 253,482 254,482 256,484 257,484 260,487 260,488 263,491 263,492 264,493 264,494 265,495 265,498 268,501 268,502 269,502 272,505 272,506 274,508 275,508 276,509 276,510 277,511 277,514 278,515 278,516 279,516 280,515 281,515 282,514 282,512 283,511 283,510 284,509 284,506 283,505 283,504 282,503 282,501 281,500 281,498 280,497 280,495 279,494 279,493 278,492 278,490 277,489 277,487 276,486 276,485 275,484 275,483 274,482 274,481 273,480 273,478 272,477 272,474 271,473 271,472 270,471 270,470 269,469 269,467 268,466 268,465 267,464 267,463 266,462 266,460 265,459 265,457 264,456 264,455 263,454 263,453 262,452 262,449 261,448 258,448 257,449 254,449 253,450 236,450 235,449 233,449 232,448 231,448 230,447 228,447 227,446 226,446 225,445 Z" fill="#f9f9f9" /></g><g id="layer_17"><path d="M 243,319 242,320 241,320 240,321 239,321 234,326 234,327 231,330 231,331 230,332 230,333 229,334 229,336 228,337 228,339 227,340 227,342 226,343 226,349 225,350 225,355 226,356 226,360 227,361 227,362 231,366 237,366 238,365 239,365 240,364 241,364 243,362 243,361 244,360 244,347 245,346 245,345 246,344 246,343 247,342 247,341 249,339 249,338 253,334 253,333 254,332 254,328 253,327 253,325 252,324 252,323 249,320 247,320 246,319 Z" fill="#d5a60c" /></g><g id="layer_18"><path d="M 332,163 331,164 330,164 322,172 322,173 320,175 320,176 318,178 318,179 317,180 317,182 316,183 316,184 315,185 315,186 314,187 314,188 313,189 313,190 312,191 312,192 311,193 311,194 310,195 310,199 309,200 309,204 310,205 310,206 311,206 314,209 318,209 320,207 321,207 324,204 325,204 326,203 326,202 329,199 329,198 331,196 331,195 333,193 333,192 334,191 334,190 335,189 335,188 336,187 336,184 337,183 337,181 338,180 338,175 339,174 339,167 338,166 338,165 336,163 Z" fill="#9b9a98" /></g><g id="layer_19"><path d="M 307,152 306,153 304,153 302,155 301,155 294,162 294,163 293,164 293,165 291,167 291,168 290,169 290,170 289,171 289,173 288,174 288,175 287,176 287,179 286,180 286,185 285,186 285,194 286,195 286,197 289,197 290,198 296,198 296,197 299,194 299,193 301,191 301,190 302,189 302,188 303,187 303,186 304,185 304,184 306,182 306,180 307,179 307,178 308,177 308,176 309,175 309,173 310,172 310,171 311,170 311,168 312,167 312,164 313,163 313,156 312,155 312,154 311,153 310,153 309,152 Z" fill="#a7a6a5" /></g><g id="layer_20"><path d="M 282,204 281,205 279,205 278,206 277,206 274,209 274,216 275,217 275,218 277,220 277,221 278,222 279,222 282,225 283,225 285,227 286,227 287,228 289,228 290,229 291,229 292,230 294,230 295,231 306,231 307,230 309,230 312,227 312,226 313,225 313,220 312,219 312,218 311,217 311,216 307,212 306,212 303,209 302,209 301,208 300,208 299,207 297,207 296,206 294,206 293,205 289,205 288,204 Z" fill="#030201" /></g><g id="layer_21"><path d="M 315,494 314,495 310,495 309,496 306,496 305,497 303,497 302,498 301,498 300,499 299,499 298,500 297,500 295,502 294,502 286,510 286,511 285,512 285,513 284,514 284,517 283,518 283,521 284,522 284,524 286,524 287,523 288,523 291,520 292,520 294,518 295,518 297,516 298,516 299,515 300,515 301,514 302,514 303,513 305,513 306,512 308,512 309,511 311,511 312,510 314,510 316,508 317,508 319,506 320,506 321,505 322,505 323,504 326,504 327,503 328,503 332,499 332,496 331,496 330,495 327,495 326,494 Z" fill="#c79e12" /></g><g id="layer_22"><path d="M 203,309 202,310 201,310 193,318 193,319 192,320 192,321 191,322 191,323 189,325 189,327 188,328 188,329 187,330 187,332 186,333 186,336 185,337 185,342 184,343 184,344 185,345 185,348 186,349 186,350 187,350 188,351 191,351 192,350 193,350 200,343 200,342 202,340 202,339 203,338 203,337 204,336 204,335 205,334 205,333 206,332 206,330 207,329 207,327 208,326 208,324 209,323 209,312 208,311 208,310 207,310 206,309 Z" fill="#dba70d" /></g><g id="layer_23"><path d="M 261,258 260,259 259,259 259,262 260,263 260,266 263,269 263,270 268,275 269,275 270,276 271,276 272,277 275,277 276,278 277,278 278,279 285,279 286,278 289,278 290,277 292,277 293,276 294,276 295,275 296,275 297,274 298,274 301,271 302,271 302,270 300,268 299,268 297,266 295,266 294,265 283,265 281,263 280,263 278,261 277,261 276,260 275,260 274,259 270,259 269,258 Z" fill="#e99f9f" /></g></svg>